<svg id="Ebene_1" data-name="Ebene 1" xmlns="http://www.w3.org/2000/svg" viewBox="0 0 566.93 566.93"><defs><style>.cls-1{fill:#fff;}</style></defs><path class="cls-1" d="M283.46,100.32a184,184,0,0,0-184,184C99.46,373.58,163,448,247.32,464.76V321.58l-30.5-.79.78-46.25h30.51c0-18.29-5.43-69.87,19.3-87.79,34.93-25.35,97.23-7.85,97.23-7.85l-7.82,47S332.66,222,328.67,222c-6,0-20.33,2.36-20.33,16.46v36.84h50.05l-4.69,45.47-45.36.79v145c89.85-12.15,159.13-89.1,159.13-182.29C467.47,182.7,385.09,100.32,283.46,100.32Z"/></svg>