<svg id="Ebene_1" data-name="Ebene 1" xmlns="http://www.w3.org/2000/svg" viewBox="0 0 566.93 566.93"><defs><style>.cls-1{fill:none;stroke:#fff;stroke-miterlimit:10;stroke-width:19.37px;}.cls-2{fill:#fff;}</style></defs><path class="cls-1" d="M342.5,412H203.86A58.87,58.87,0,0,1,145,353.09V214.45a58.87,58.87,0,0,1,58.87-58.87H342.5a58.87,58.87,0,0,1,58.87,58.87V353.09A58.87,58.87,0,0,1,342.5,412Zm-5.84-128.19a63.48,63.48,0,1,1-63.48-63.47,63.48,63.48,0,0,1,63.48,63.47Z"/><path class="cls-2" d="M351.34,188.89a16.84,16.84,0,1,0,16.83,16.83,16.85,16.85,0,0,0-16.83-16.83Z"/></svg>