<svg id="Ebene_1" data-name="Ebene 1" xmlns="http://www.w3.org/2000/svg" viewBox="0 0 566.93 566.93"><defs><style>.cls-1{fill:#fff;}</style></defs><path class="cls-1" d="M282.09,102.32a180.35,180.35,0,0,0-67.67,347.52c-.43-4.13-.89-8.72-1.12-12-.49-7-.42-20-.19-25.19s1.67-13.29,4-23.27S235,315.05,238,299.87c-6.15-12.59-6.38-33.24-3.07-44.87s15.42-25.41,27.06-26.59,20.41,4,24.21,12.35,3.57,16.14,1,27.3-12.11,41.78-14,49.61,2.94,19,8.07,23.5c5.94,5.22,23.75,13.53,40.37,1.18S352,308.18,355.07,272.8s-5-52-20.18-65.28-43-22.32-75.72-13.77-54.6,36.8-59.11,65.52,7.35,43.68,11.4,48.66,2.13,6.89,1.65,8.55-2.37,9.49-4.27,14.95-5.69,4.52-8.06,3.33-16.63-7.6-24.46-21.6c-3.68-6.58-23.88-42,2.15-92.35,26.33-51,94.24-66,133.88-57.68,38.55,8.08,70,33.71,80.7,67.18s2.85,89-24.69,118.93-60.29,32.29-80,26.34S263,356.35,263,356.35s-7.79,31-10.35,40.87c-1.57,6-2.56,13.5-10.34,28.08-5.13,9.59-12.7,21.07-17.66,28.31a180.35,180.35,0,1,0,57.48-351.29Z"/></svg>